<mxfile host="app.diagrams.net" modified="2023-12-08T14:58:22.246Z" agent="Mozilla/5.0 (Windows NT 10.0; Win64; x64) AppleWebKit/537.36 (KHTML, like Gecko) Chrome/119.0.0.0 Safari/537.36" etag="_8OVj3MhCKOVp-BQWO4W" version="22.1.7" type="github">
  <diagram name="Page-1" id="74e2e168-ea6b-b213-b513-2b3c1d86103e">
    <mxGraphModel dx="1674" dy="758" grid="1" gridSize="10" guides="1" tooltips="1" connect="1" arrows="1" fold="1" page="1" pageScale="1" pageWidth="1100" pageHeight="850" background="none" math="0" shadow="0">
      <root>
        <mxCell id="0" />
        <mxCell id="1" parent="0" />
        <mxCell id="77e6c97f196da883-1" value="" style="swimlane;html=1;childLayout=stackLayout;startSize=20;rounded=0;shadow=0;labelBackgroundColor=none;strokeWidth=1;fontFamily=Verdana;fontSize=8;align=center;" parent="1" vertex="1">
          <mxGeometry x="70" y="20" width="410" height="540" as="geometry" />
        </mxCell>
        <mxCell id="77e6c97f196da883-2" value="全球客户服务部" style="swimlane;html=1;startSize=20;" parent="77e6c97f196da883-1" vertex="1">
          <mxGeometry y="20" width="140" height="520" as="geometry" />
        </mxCell>
        <mxCell id="EUZJvYX-h_vxx6ZMeLkw-1" style="edgeStyle=orthogonalEdgeStyle;rounded=0;orthogonalLoop=1;jettySize=auto;html=1;exitX=0.5;exitY=1;exitDx=0;exitDy=0;entryX=0.5;entryY=0;entryDx=0;entryDy=0;" edge="1" parent="77e6c97f196da883-2" source="ZSuGLA9R8co5YekJJskA-5" target="ZSuGLA9R8co5YekJJskA-59">
          <mxGeometry relative="1" as="geometry" />
        </mxCell>
        <mxCell id="ZSuGLA9R8co5YekJJskA-5" value="处理提单&lt;br&gt;提货请求" style="rounded=1;whiteSpace=wrap;html=1;" parent="77e6c97f196da883-2" vertex="1">
          <mxGeometry x="20" y="40" width="90" height="50" as="geometry" />
        </mxCell>
        <mxCell id="ZSuGLA9R8co5YekJJskA-59" value="清关检查" style="rounded=1;whiteSpace=wrap;html=1;" parent="77e6c97f196da883-2" vertex="1">
          <mxGeometry x="20" y="130" width="90" height="50" as="geometry" />
        </mxCell>
        <mxCell id="ZSuGLA9R8co5YekJJskA-72" style="edgeStyle=orthogonalEdgeStyle;rounded=0;orthogonalLoop=1;jettySize=auto;html=1;exitX=0.5;exitY=1;exitDx=0;exitDy=0;entryX=0.5;entryY=0;entryDx=0;entryDy=0;" parent="77e6c97f196da883-2" source="ZSuGLA9R8co5YekJJskA-69" target="ZSuGLA9R8co5YekJJskA-71" edge="1">
          <mxGeometry relative="1" as="geometry" />
        </mxCell>
        <mxCell id="ZSuGLA9R8co5YekJJskA-69" value="特殊费用检查" style="rounded=1;whiteSpace=wrap;html=1;" parent="77e6c97f196da883-2" vertex="1">
          <mxGeometry x="20" y="290" width="90" height="50" as="geometry" />
        </mxCell>
        <mxCell id="ZSuGLA9R8co5YekJJskA-74" style="edgeStyle=orthogonalEdgeStyle;rounded=0;orthogonalLoop=1;jettySize=auto;html=1;exitX=0.5;exitY=1;exitDx=0;exitDy=0;entryX=0.5;entryY=0;entryDx=0;entryDy=0;" parent="77e6c97f196da883-2" source="ZSuGLA9R8co5YekJJskA-71" target="ZSuGLA9R8co5YekJJskA-73" edge="1">
          <mxGeometry relative="1" as="geometry" />
        </mxCell>
        <mxCell id="ZSuGLA9R8co5YekJJskA-71" value="验单放货" style="rounded=1;whiteSpace=wrap;html=1;" parent="77e6c97f196da883-2" vertex="1">
          <mxGeometry x="20" y="370" width="90" height="50" as="geometry" />
        </mxCell>
        <mxCell id="ZSuGLA9R8co5YekJJskA-73" value="结束" style="rounded=1;whiteSpace=wrap;html=1;" parent="77e6c97f196da883-2" vertex="1">
          <mxGeometry x="20" y="450" width="90" height="50" as="geometry" />
        </mxCell>
        <mxCell id="77e6c97f196da883-4" value="文档部门" style="swimlane;html=1;startSize=20;" parent="77e6c97f196da883-1" vertex="1">
          <mxGeometry x="140" y="20" width="130" height="520" as="geometry" />
        </mxCell>
        <mxCell id="ZSuGLA9R8co5YekJJskA-62" value="进口文件检查" style="rounded=1;whiteSpace=wrap;html=1;" parent="77e6c97f196da883-4" vertex="1">
          <mxGeometry x="20" y="220" width="90" height="50" as="geometry" />
        </mxCell>
        <mxCell id="77e6c97f196da883-5" value="财务部" style="swimlane;html=1;startSize=20;" parent="77e6c97f196da883-1" vertex="1">
          <mxGeometry x="270" y="20" width="140" height="520" as="geometry" />
        </mxCell>
        <mxCell id="ZSuGLA9R8co5YekJJskA-64" value="费用检查" style="rounded=1;whiteSpace=wrap;html=1;" parent="77e6c97f196da883-5" vertex="1">
          <mxGeometry x="25" y="220" width="90" height="50" as="geometry" />
        </mxCell>
        <mxCell id="ZSuGLA9R8co5YekJJskA-63" style="edgeStyle=orthogonalEdgeStyle;rounded=0;orthogonalLoop=1;jettySize=auto;html=1;exitX=0.5;exitY=1;exitDx=0;exitDy=0;" parent="77e6c97f196da883-1" source="ZSuGLA9R8co5YekJJskA-59" target="ZSuGLA9R8co5YekJJskA-62" edge="1">
          <mxGeometry relative="1" as="geometry" />
        </mxCell>
        <mxCell id="ZSuGLA9R8co5YekJJskA-70" style="edgeStyle=orthogonalEdgeStyle;rounded=0;orthogonalLoop=1;jettySize=auto;html=1;exitX=0.5;exitY=1;exitDx=0;exitDy=0;entryX=1;entryY=0.5;entryDx=0;entryDy=0;" parent="77e6c97f196da883-1" source="ZSuGLA9R8co5YekJJskA-64" target="ZSuGLA9R8co5YekJJskA-69" edge="1">
          <mxGeometry relative="1" as="geometry" />
        </mxCell>
        <mxCell id="EUZJvYX-h_vxx6ZMeLkw-2" style="edgeStyle=orthogonalEdgeStyle;rounded=0;orthogonalLoop=1;jettySize=auto;html=1;exitX=1;exitY=0.5;exitDx=0;exitDy=0;entryX=0;entryY=0.5;entryDx=0;entryDy=0;" edge="1" parent="77e6c97f196da883-1" source="ZSuGLA9R8co5YekJJskA-62" target="ZSuGLA9R8co5YekJJskA-64">
          <mxGeometry relative="1" as="geometry" />
        </mxCell>
      </root>
    </mxGraphModel>
  </diagram>
</mxfile>
